<svg xmlns="http://www.w3.org/2000/svg" width="20" height="25" viewBox="0 0 20 25">
    <g fill="none" fill-rule="evenodd" stroke-linecap="round">
        <g stroke="#CC0B10" stroke-width="1.6">
            <g>
                <g>
                    <path d="M50.2 54c1.767 0 3.2 1.433 3.2 3.2 0 1.767-1.433 3.2-3.2 3.2-1.767 0-3.2-1.433-3.2-3.2 0-1.767 1.433-3.2 3.2-3.2zM39 46c1.767 0 3.2 1.433 3.2 3.2 0 1.767-1.433 3.2-3.2 3.2-1.767 0-3.2-1.433-3.2-3.2 0-1.767 1.433-3.2 3.2-3.2zm11.2-8c1.767 0 3.2 1.433 3.2 3.2 0 1.767-1.433 3.2-3.2 3.2-1.767 0-3.2-1.433-3.2-3.2 0-1.767 1.433-3.2 3.2-3.2zm-2.8 5.2l-5.6 4m0 4l5.6 4" transform="translate(-69 -4324) translate(-64 4105) translate(98 182)"/>
                </g>
            </g>
        </g>
    </g>
</svg>
